<svg aria-hidden="true" style="width:0;height:0;position:absolute;overflow:hidden" xmlns="http://www.w3.org/2000/svg"><defs><symbol id="icon-mobile-menu" viewBox="0 0 58 32"><path fill="none" stroke="#1eebcd" style="stroke:var(--color1,#1eebcd)" stroke-linecap="round" stroke-width="5.161" d="M54.71 15.484H23.742"/><path fill="none" stroke="#bdfef4" style="stroke:var(--color2,#bdfef4)" stroke-linecap="round" stroke-width="5.161" d="M54.71 29.419H3.097M54.71 2.581H3.097"/></symbol><symbol id="icon-score__points" viewBox="0 0 26 32"><path fill="#1eebcd" style="fill:var(--color1,#1eebcd)" d="M25.143 14.68a1.523 1.523 0 0 1 0 2.639L2.286 30.516A1.524 1.524 0 0 1 0 29.196V2.803a1.524 1.524 0 0 1 2.286-1.32L25.143 14.68z"/></symbol><symbol id="icon-score__points-free" viewBox="0 0 26 32"><path fill="none" stroke="#1eebcd" style="stroke:var(--color1,#1eebcd)" stroke-width="3.048" d="M24.381 16 1.524 29.197V2.804l22.857 13.197z"/></symbol><symbol id="icon-btn-read-more" viewBox="0 0 27 32"><path fill="#1eebcd" style="fill:var(--color1,#1eebcd)" d="M25.5 13.402c2 1.155 2 4.041 0 5.196l-21 12.124c-2 1.155-4.5-.289-4.5-2.598V3.875C0 1.566 2.5.122 4.5 1.277l21 12.124z"/></symbol><symbol id="icon-btn-read-more-active" viewBox="0 0 38 32"><path fill="#1eebcd" style="fill:var(--color1,#1eebcd)" d="M22.042 30.222c-1.369 2.37-4.79 2.37-6.158 0L1.514 5.333C.145 2.963 1.856 0 4.593 0h28.739c2.737 0 4.448 2.963 3.079 5.333l-14.37 24.889z"/></symbol><symbol id="icon-month-working-left" viewBox="0 0 32 32"><path fill="#0E2E29" style="fill:var(--color2,#0e2e29)" d="M0 16C0 7.163 7.163 0 16 0s16 7.163 16 16-7.163 16-16 16S0 24.837 0 16z"/><path fill="none" stroke="#020e0c" style="stroke:var(--color1,#020e0c)" stroke-linejoin="round" stroke-linecap="round" stroke-miterlimit="10" stroke-width="2.4" d="m18.575 9.4-5.433 5.433a1.654 1.654 0 0 0 0 2.333l5.433 5.433"/></symbol><symbol id="icon-month-working-right" viewBox="0 0 32 32"><path fill="#1eebcd" style="fill:var(--color2,#1eebcd)" d="M32 16c0 8.837-7.163 16-16 16S0 24.837 0 16 7.163 0 16 0s16 7.163 16 16z"/><path fill="none" stroke="#fff" style="stroke:var(--color3,#fff)" stroke-linejoin="round" stroke-linecap="round" stroke-miterlimit="10" stroke-width="2.4" d="m13.425 22.6 5.433-5.433a1.654 1.654 0 0 0 0-2.333l-5.433-5.433"/></symbol></defs></svg>