<svg aria-hidden="true" style="position: absolute; width: 0; height: 0; overflow: hidden;" version="1.1" xmlns="http://www.w3.org/2000/svg" xmlns:xlink="http://www.w3.org/1999/xlink">
<defs>
<symbol id="icon-mobile-menu" viewBox="0 0 58 32">
<path fill="none" stroke="#1eebcd" style="stroke: var(--color1, #1eebcd)" stroke-linejoin="miter" stroke-linecap="round" stroke-miterlimit="4" stroke-width="5.1613" d="M54.71 15.484h-30.968"></path>
<path fill="none" stroke="#bdfef4" style="stroke: var(--color2, #bdfef4)" stroke-linejoin="miter" stroke-linecap="round" stroke-miterlimit="4" stroke-width="5.1613" d="M54.71 29.419h-51.613"></path>
<path fill="none" stroke="#bdfef4" style="stroke: var(--color2, #bdfef4)" stroke-linejoin="miter" stroke-linecap="round" stroke-miterlimit="4" stroke-width="5.1613" d="M54.71 2.581h-51.613"></path>
</symbol>
<symbol id="icon-score__points" viewBox="0 0 26 32">
<path fill="#1eebcd" style="fill: var(--color1, #1eebcd)" d="M25.143 14.68c1.016 0.587 1.016 2.053 0 2.639l-22.857 13.197c-1.016 0.587-2.286-0.147-2.286-1.32v-26.393c0-1.173 1.27-1.906 2.286-1.32l22.857 13.197z"></path>
</symbol>
<symbol id="icon-score__points-free" viewBox="0 0 26 32">
<path fill="none" stroke="#1eebcd" style="stroke: var(--color1, #1eebcd)" stroke-linejoin="miter" stroke-linecap="butt" stroke-miterlimit="4" stroke-width="3.0476" d="M24.381 16l-22.857 13.197v-26.393l22.857 13.197z"></path>
</symbol>
<symbol id="icon-btn-read-more" viewBox="0 0 27 32">
<path fill="#1eebcd" style="fill: var(--color1, #1eebcd)" d="M25.5 13.402c2 1.155 2 4.041 0 5.196l-21 12.124c-2 1.155-4.5-0.289-4.5-2.598v-24.249c0-2.309 2.5-3.753 4.5-2.598l21 12.124z"></path>
</symbol>
<symbol id="icon-btn-read-more-active" viewBox="0 0 38 32">
<path fill="#1eebcd" style="fill: var(--color1, #1eebcd)" d="M22.042 30.222c-1.369 2.37-4.79 2.37-6.158 0l-14.37-24.889c-1.369-2.37 0.342-5.333 3.079-5.333h28.739c2.737 0 4.448 2.963 3.079 5.333l-14.37 24.889z"></path>
</symbol>
<symbol id="icon-month-working-left" viewBox="0 0 32 32">
<path  fill="#0E2E29" style="fill: var(--color2, #0E2E29)" d="M0 16c0-8.837 7.163-16 16-16s16 7.163 16 16c0 8.837-7.163 16-16 16s-16-7.163-16-16z"></path>
<path fill="none" stroke="#020e0c" style="stroke: var(--color1, #020e0c)" stroke-linejoin="round" stroke-linecap="round" stroke-miterlimit="10" stroke-width="2.4" d="M18.575 9.4l-5.433 5.433c-0.642 0.642-0.642 1.692 0 2.333l5.433 5.433"></path>
</symbol>
<symbol id="icon-month-working-right" viewBox="0 0 32 32">
<path fill="#1eebcd" style="fill: var(--color2, #1eebcd)" d="M32 16c0 8.837-7.163 16-16 16s-16-7.163-16-16c0-8.837 7.163-16 16-16s16 7.163 16 16z"></path>
<path fill="none" stroke="#fff" style="stroke: var(--color3, #fff)" stroke-linejoin="round" stroke-linecap="round" stroke-miterlimit="10" stroke-width="2.4" d="M13.425 22.6l5.433-5.433c0.642-0.642 0.642-1.692 0-2.333l-5.433-5.433"></path>
</symbol>
</defs>
</svg>
